<?xml version="1.0" encoding="UTF-8"?>
<svg id="Layer_1" xmlns="http://www.w3.org/2000/svg" version="1.1" viewBox="0 0 1920 1080">
  <!-- Generator: Adobe Illustrator 30.0.0, SVG Export Plug-In . SVG Version: 2.1.1 Build 123)  -->
  <defs>
    <style>
      .st0 {
        fill: #ffdb7f;
      }

      .st1 {
        fill: #fedc81;
      }
    </style>
  </defs>
  <g>
    <path class="st1" d="M761.55,514.04c7.21-7.38,16.42-11.06,27.6-11.06s20.14,3.71,27.36,11.13c7.21,7.42,10.82,16.68,10.82,27.78s-3.61,20.37-10.82,27.78c-7.22,7.42-16.33,11.13-27.36,11.13s-20.39-3.71-27.6-11.13c-7.22-7.42-10.82-16.68-10.82-27.78s3.61-20.39,10.82-27.84ZM765.93,541.88c0,7.22,2.19,13.21,6.57,18,4.38,4.78,9.93,7.17,16.66,7.17s12.14-2.39,16.48-7.17c4.33-4.78,6.5-10.78,6.5-18s-2.17-13.21-6.5-18c-4.34-4.78-9.83-7.17-16.48-7.17s-12.28,2.39-16.66,7.17c-4.38,4.78-6.57,10.78-6.57,18Z"/>
    <path class="st1" d="M848.49,522.55v8.15c4.05-6.16,10.17-9.24,18.36-9.24,6.81,0,12.12,1.87,15.93,5.59,3.81,3.73,5.71,9.12,5.71,16.17v36.36h-14.96v-32.71c0-8.43-3.65-12.65-10.94-12.65-2.76,0-5.29.81-7.6,2.43-2.31,1.62-3.95,4.05-4.92,7.3v35.63h-14.96v-57.03h13.38Z"/>
    <path class="st1" d="M904.42,529.72c5.43-5.59,12.32-8.39,20.67-8.39s14.87,2.74,20.06,8.21c5.19,5.47,7.78,12.75,7.78,21.83,0,.24-.02.69-.06,1.34-.04.65-.06,1.14-.06,1.46h-42.19c.4,4.46,2.03,7.99,4.86,10.58,2.84,2.59,6.4,3.89,10.7,3.89,5.75,0,10.58-2.39,14.47-7.17l8.75,7.29c-6.08,8.03-14.19,12.04-24.32,12.04-8.43,0-15.36-2.78-20.79-8.33-5.43-5.55-8.15-12.62-8.15-21.22s2.75-15.93,8.27-21.52ZM910.87,545.78h27.84c-.57-4.3-2.07-7.58-4.5-9.85-2.43-2.27-5.43-3.4-9-3.4s-6.57,1.16-9.24,3.47c-2.68,2.31-4.38,5.57-5.11,9.79Z"/>
    <path class="st1" d="M956.71,573.74l5.23-9.12c1.95,1.87,4.44,3.37,7.48,4.5,3.04,1.14,5.82,1.7,8.33,1.7,2.92,0,5.31-.57,7.17-1.7,1.86-1.13,2.8-2.71,2.8-4.74,0-1.54-.63-2.82-1.88-3.83-1.26-1.01-3.46-2.13-6.63-3.34l-6.57-2.55c-8.75-3.32-13.13-8.88-13.13-16.66,0-5.19,2.02-9.32,6.08-12.4,4.05-3.08,9.36-4.62,15.93-4.62,3.32,0,6.57.59,9.73,1.76,3.16,1.18,5.67,2.61,7.54,4.32l-4.99,8.15c-3.73-2.92-7.82-4.38-12.28-4.38-2.84,0-5.03.59-6.57,1.76-1.54,1.18-2.31,2.61-2.31,4.32,0,1.46.57,2.7,1.7,3.71,1.13,1.01,3.24,2.13,6.32,3.34l7.3,2.92c4.7,1.87,8.09,4.01,10.15,6.45,2.07,2.43,3.1,5.59,3.1,9.48,0,5.43-2.19,9.81-6.57,13.13-4.38,3.32-9.65,4.99-15.81,4.99-9.24,0-16.62-2.39-22.13-7.17Z"/>
    <path class="st1" d="M1005.22,528.02l20.43-16.78h3.16v12.04h14.47v12.16h-14.47v22.98c0,3.57.49,6.02,1.46,7.36s2.63,2.01,4.99,2.01c1.86,0,3.69-.53,5.47-1.58l3.28,9.85c-1.3,1.22-3.2,2.31-5.71,3.28-2.51.97-5.23,1.46-8.15,1.46-5.35,0-9.42-1.62-12.22-4.86-2.8-3.24-4.2-7.62-4.2-13.13v-27.36h-8.51v-7.42Z"/>
    <path class="st1" d="M1051.06,579.58v-57.03h16.17v10.21h.24c3.65-7.13,9.32-10.9,17.02-11.31h.73c.49,0,1.09.04,1.82.12v14.35c-1.3-.32-2.8-.49-4.5-.49-7.78.57-12.69,4.54-14.71,11.92v32.22h-16.78Z"/>
    <path class="st1" d="M1096.3,529.72c5.43-5.59,12.32-8.39,20.67-8.39s14.87,2.74,20.06,8.21c5.19,5.47,7.78,12.75,7.78,21.83,0,.24-.02.69-.06,1.34-.04.65-.06,1.14-.06,1.46h-42.19c.4,4.46,2.03,7.99,4.86,10.58,2.84,2.59,6.4,3.89,10.7,3.89,5.75,0,10.58-2.39,14.47-7.17l8.75,7.29c-6.08,8.03-14.19,12.04-24.32,12.04-8.43,0-15.36-2.78-20.79-8.33-5.43-5.55-8.15-12.62-8.15-21.22s2.75-15.93,8.27-21.52ZM1102.74,545.78h27.84c-.57-4.3-2.07-7.58-4.5-9.85-2.43-2.27-5.43-3.4-9-3.4s-6.57,1.16-9.24,3.47c-2.68,2.31-4.38,5.57-5.11,9.79Z"/>
    <path class="st1" d="M1157.46,529.72c5.43-5.59,12.32-8.39,20.67-8.39s14.87,2.74,20.06,8.21c5.19,5.47,7.78,12.75,7.78,21.83,0,.24-.02.69-.06,1.34-.04.65-.06,1.14-.06,1.46h-42.19c.4,4.46,2.03,7.99,4.86,10.58,2.84,2.59,6.4,3.89,10.7,3.89,5.75,0,10.58-2.39,14.47-7.17l8.75,7.29c-6.08,8.03-14.19,12.04-24.32,12.04-8.43,0-15.36-2.78-20.79-8.33-5.43-5.55-8.15-12.62-8.15-21.22s2.75-15.93,8.27-21.52ZM1163.9,545.78h27.84c-.57-4.3-2.07-7.58-4.5-9.85-2.43-2.27-5.43-3.4-9-3.4s-6.57,1.16-9.24,3.47c-2.68,2.31-4.38,5.57-5.11,9.79Z"/>
    <path class="st1" d="M1207.67,528.02l20.43-16.78h3.16v12.04h14.47v12.16h-14.47v22.98c0,3.57.49,6.02,1.46,7.36s2.63,2.01,4.99,2.01c1.86,0,3.69-.53,5.47-1.58l3.28,9.85c-1.3,1.22-3.2,2.31-5.71,3.28-2.51.97-5.23,1.46-8.15,1.46-5.35,0-9.42-1.62-12.22-4.86-2.8-3.24-4.2-7.62-4.2-13.13v-27.36h-8.51v-7.42Z"/>
    <path class="st1" d="M1253.51,579.58v-57.03h16.17v10.21h.24c3.65-7.13,9.32-10.9,17.02-11.31h.73c.49,0,1.09.04,1.82.12v14.35c-1.3-.32-2.8-.49-4.5-.49-7.78.57-12.69,4.54-14.71,11.92v32.22h-16.78Z"/>
    <path class="st1" d="M1298.75,529.72c5.43-5.59,12.32-8.39,20.67-8.39s14.87,2.74,20.06,8.21c5.19,5.47,7.78,12.75,7.78,21.83,0,.24-.02.69-.06,1.34-.04.65-.06,1.14-.06,1.46h-42.19c.4,4.46,2.03,7.99,4.86,10.58,2.84,2.59,6.4,3.89,10.7,3.89,5.75,0,10.58-2.39,14.47-7.17l8.75,7.29c-6.08,8.03-14.19,12.04-24.32,12.04-8.43,0-15.36-2.78-20.79-8.33-5.43-5.55-8.15-12.62-8.15-21.22s2.75-15.93,8.27-21.52ZM1305.19,545.78h27.84c-.57-4.3-2.07-7.58-4.5-9.85-2.43-2.27-5.43-3.4-9-3.4s-6.57,1.16-9.24,3.47c-2.68,2.31-4.38,5.57-5.11,9.79Z"/>
    <path class="st1" d="M1351.64,551.12c0-8.83,2.33-16.01,6.99-21.52,4.66-5.51,10.96-8.27,18.91-8.27,7.46,0,13.17,2.84,17.14,8.51l.24-.12v-7.17h14.83v57.03h-14.83v-6.81l-.36-.24c-4.05,5.51-9.73,8.27-17.02,8.27-7.95,0-14.25-2.74-18.91-8.21-4.66-5.47-6.99-12.62-6.99-21.46ZM1370.49,563.28c2.75,3,6.24,4.5,10.46,4.5,3.32,0,6.22-.93,8.69-2.8,2.47-1.86,4.15-4.54,5.05-8.03v-11.79c-.89-3.48-2.57-6.14-5.05-7.96-2.47-1.82-5.37-2.74-8.69-2.74-4.22,0-7.7,1.5-10.46,4.5-2.76,3-4.13,7.05-4.13,12.16s1.38,9.16,4.13,12.16Z"/>
    <path class="st1" d="M1434.57,579.58h-15.08v-91.2h15.08v91.2Z"/>
    <path class="st1" d="M1440.04,528.02l20.43-16.78h3.16v12.04h14.47v12.16h-14.47v22.98c0,3.57.49,6.02,1.46,7.36s2.63,2.01,4.99,2.01c1.86,0,3.69-.53,5.47-1.58l3.28,9.85c-1.3,1.22-3.2,2.31-5.71,3.28-2.51.97-5.23,1.46-8.15,1.46-5.35,0-9.42-1.62-12.22-4.86-2.8-3.24-4.2-7.62-4.2-13.13v-27.36h-8.51v-7.42Z"/>
    <path class="st1" d="M1481.74,522.55h15.81l14.83,37.21,13.25-37.21h15.08l-34.65,87.43h-13.74l13.38-31.49-23.95-55.93Z"/>
  </g>
  <path class="st0" d="M411.97,627.46v.25c-.08,0-.16.01-.24.04-.08.02-.11.08-.11.18,0,.06.07.19.2.4.14.21.3.45.48.72s.37.54.57.83c.2.28.36.52.48.72l1.65-2.27c.08-.11.14-.2.18-.27.05-.07.07-.13.07-.18,0-.07-.04-.11-.13-.13-.09-.02-.17-.03-.25-.03v-.25h2.47v.25c-.08,0-.15,0-.21.02-.07.01-.13.05-.2.1-.07.05-.15.13-.23.23-.08.1-.18.23-.29.4l-2.4,3.4v2.51c0,.17.11.25.32.25v.25h-2.23v-.25c.08,0,.16-.02.21-.06.06-.04.08-.11.08-.19v-2.51l-2.72-3.81c-.07-.09-.17-.17-.3-.24-.14-.07-.25-.1-.35-.1v-.25h2.94ZM422.99,627.38c.52,0,1.04.08,1.58.23.54.16,1.03.39,1.47.7.44.31.8.7,1.09,1.18.28.48.42,1.04.42,1.69s-.14,1.21-.42,1.69c-.28.48-.64.87-1.09,1.18-.44.31-.93.54-1.47.68-.54.14-1.06.21-1.58.21s-1.04-.07-1.58-.21c-.54-.14-1.03-.37-1.47-.68-.44-.31-.8-.7-1.09-1.18-.28-.47-.42-1.04-.42-1.69s.14-1.21.42-1.69c.28-.47.64-.87,1.09-1.18.44-.31.93-.54,1.47-.7.54-.16,1.06-.23,1.58-.23ZM422.99,628.68c-.36,0-.72.06-1.07.17-.36.11-.68.28-.97.49-.29.21-.52.47-.7.78-.18.31-.27.66-.27,1.06s.09.75.27,1.06c.18.31.41.57.7.78.29.21.61.37.97.49.36.11.71.17,1.07.17s.71-.06,1.07-.17c.36-.11.68-.28.97-.49.29-.21.52-.47.7-.78.18-.31.27-.66.27-1.06s-.09-.75-.27-1.06c-.18-.31-.41-.57-.7-.78-.29-.21-.61-.37-.97-.49-.36-.11-.72-.17-1.07-.17ZM431.72,627.72c-.21,0-.31.08-.31.25v4.23c0,.59.19,1,.57,1.22.38.22.94.33,1.67.33s1.29-.11,1.67-.33c.38-.22.57-.63.57-1.22v-4.23c0-.17-.14-.25-.42-.25v-.25h2.26v.25c-.23,0-.34.08-.34.25v4.16c0,.56-.08,1.01-.24,1.38-.16.36-.4.65-.72.87-.32.22-.72.36-1.19.44-.48.08-1.02.11-1.64.11s-1.17-.04-1.64-.11c-.48-.08-.87-.22-1.19-.44-.32-.22-.56-.51-.72-.87-.16-.36-.24-.82-.24-1.38v-4.16c0-.17-.13-.25-.4-.25v-.25h2.31v.25ZM444.62,627.46c.45,0,.86.04,1.23.12.37.08.68.21.95.38.26.17.47.4.61.68.14.28.21.62.21,1.02,0,.62-.18,1.1-.55,1.43-.37.33-.86.55-1.48.66l1.88,2.68c.07.09.14.15.23.17.09.02.17.03.25.03v.25h-2.64v-.25c.08,0,.16-.01.22-.04.06-.03.09-.07.09-.11s-.02-.1-.06-.16c-.04-.06-.09-.14-.17-.25l-1.55-2.2h-2.02v2.51c0,.08.03.15.09.19.06.04.17.06.33.06v.25h-2.44v-.25c.27,0,.41-.08.41-.25v-6.41c0-.17-.14-.25-.41-.25v-.25h4.83ZM444.26,630.77c.34,0,.62-.03.85-.08.23-.05.4-.12.54-.22.13-.09.23-.2.28-.33.06-.13.08-.27.08-.42s-.03-.29-.08-.42c-.06-.13-.15-.24-.28-.33-.13-.09-.31-.17-.54-.22-.23-.05-.51-.08-.85-.08h-2.44v2.09h2.44ZM454.23,634.89v-.25c.35,0,.52-.08.52-.25v-6.41c0-.17-.17-.25-.52-.25v-.25h4.97c.9,0,1.61.17,2.13.5.52.33.78.9.78,1.7s-.26,1.37-.78,1.7c-.52.33-1.23.5-2.13.5h-2.84v2.51c0,.17.15.25.45.25v.25h-2.58ZM459.37,630.57c.31,0,.58-.06.8-.18.22-.12.33-.36.33-.72s-.11-.6-.33-.72c-.22-.12-.49-.18-.8-.18h-3.01v1.81h3.01ZM468.53,627.46c.45,0,.86.04,1.23.12.37.08.68.21.95.38.26.17.47.4.61.68.14.28.21.62.21,1.02,0,.62-.18,1.1-.55,1.43-.37.33-.86.55-1.48.66l1.88,2.68c.07.09.14.15.23.17.09.02.17.03.25.03v.25h-2.64v-.25c.08,0,.16-.01.22-.04.06-.03.09-.07.09-.11s-.02-.1-.06-.16c-.04-.06-.09-.14-.17-.25l-1.55-2.2h-2.02v2.51c0,.08.03.15.09.19.06.04.17.06.33.06v.25h-2.44v-.25c.27,0,.41-.08.41-.25v-6.41c0-.17-.14-.25-.41-.25v-.25h4.83ZM468.16,630.77c.34,0,.62-.03.85-.08.23-.05.4-.12.54-.22.13-.09.23-.2.28-.33.06-.13.08-.27.08-.42s-.03-.29-.08-.42c-.06-.13-.15-.24-.28-.33-.13-.09-.31-.17-.54-.22-.23-.05-.51-.08-.85-.08h-2.44v2.09h2.44ZM480.95,628.99c0-.1-.04-.18-.12-.23-.08-.05-.22-.08-.42-.08h-4.57v1.75h2.77c.19,0,.33-.03.44-.08.1-.05.16-.19.16-.4h.25v2.2h-.25c0-.22-.05-.36-.16-.42-.1-.06-.25-.09-.44-.09h-2.77v1.95h4.71c.14,0,.26-.03.35-.1.09-.07.13-.16.13-.27h.25v1.93h-.25c0-.14-.04-.22-.13-.24-.09-.02-.2-.03-.35-.03h-6.58v-.25c.07,0,.12-.02.18-.06.05-.04.08-.11.08-.19v-6.41c0-.08-.03-.15-.08-.19-.05-.04-.11-.06-.18-.06v-.25h6.44c.2,0,.34-.03.42-.09.08-.06.12-.14.12-.25h.25v1.86h-.25ZM483.42,634.63c.08,0,.14-.02.2-.06.06-.04.08-.11.08-.19v-6.44c0-.08-.03-.14-.08-.18s-.12-.05-.2-.05v-.25h2.64v.25s-.1.01-.15.04c-.05.03-.08.07-.08.13,0,.05.02.11.06.18.04.08.08.16.13.24l2.02,3.67,2.03-3.63c.07-.12.12-.22.15-.29.03-.07.05-.13.05-.19,0-.1-.06-.16-.18-.16v-.25h2.61v.25c-.08,0-.14.02-.2.05-.06.03-.08.09-.08.18v6.44c0,.08.03.15.08.19.06.04.12.06.2.06v.25h-2.22v-.25c.25,0,.38-.08.38-.25v-4.69h-.03l-2.84,5.19h-.04l-2.78-5.21h-.03v4.7c0,.17.13.25.4.25v.25h-2.12v-.25ZM495.1,634.63c.24,0,.37-.08.37-.25v-6.41c0-.17-.12-.25-.37-.25v-.25h2.34v.25c-.24,0-.37.08-.37.25v6.41c0,.17.12.25.37.25v.25h-2.34v-.25ZM501.88,627.72c-.21,0-.31.08-.31.25v4.23c0,.59.19,1,.57,1.22.38.22.94.33,1.67.33s1.29-.11,1.67-.33c.38-.22.57-.63.57-1.22v-4.23c0-.17-.14-.25-.42-.25v-.25h2.26v.25c-.23,0-.34.08-.34.25v4.16c0,.56-.08,1.01-.24,1.38-.16.36-.4.65-.72.87-.32.22-.72.36-1.19.44-.48.08-1.02.11-1.64.11s-1.17-.04-1.64-.11c-.48-.08-.87-.22-1.19-.44-.32-.22-.56-.51-.72-.87-.16-.36-.24-.82-.24-1.38v-4.16c0-.17-.13-.25-.4-.25v-.25h2.31v.25ZM510.06,634.63c.08,0,.14-.02.2-.06.06-.04.08-.11.08-.19v-6.44c0-.08-.03-.14-.08-.18s-.12-.05-.2-.05v-.25h2.64v.25s-.1.01-.15.04c-.05.03-.08.07-.08.13,0,.05.02.11.06.18.04.08.08.16.13.24l2.02,3.67,2.03-3.63c.07-.12.12-.22.15-.29.03-.07.05-.13.05-.19,0-.1-.06-.16-.18-.16v-.25h2.61v.25c-.08,0-.14.02-.2.05-.06.03-.08.09-.08.18v6.44c0,.08.03.15.08.19.06.04.12.06.2.06v.25h-2.22v-.25c.25,0,.38-.08.38-.25v-4.69h-.03l-2.84,5.19h-.04l-2.78-5.21h-.03v4.7c0,.17.13.25.4.25v.25h-2.12v-.25ZM530.84,627.46c.45,0,.86.04,1.23.12.37.08.68.21.95.38.26.17.47.4.61.68.14.28.21.62.21,1.02,0,.62-.18,1.1-.55,1.43-.37.33-.86.55-1.48.66l1.88,2.68c.07.09.14.15.23.17.09.02.17.03.25.03v.25h-2.64v-.25c.08,0,.16-.01.22-.04.06-.03.09-.07.09-.11s-.02-.1-.06-.16c-.04-.06-.09-.14-.17-.25l-1.55-2.2h-2.02v2.51c0,.08.03.15.09.19.06.04.17.06.33.06v.25h-2.44v-.25c.27,0,.41-.08.41-.25v-6.41c0-.17-.14-.25-.41-.25v-.25h4.83ZM530.47,630.77c.34,0,.62-.03.85-.08.23-.05.4-.12.54-.22.13-.09.23-.2.28-.33.06-.13.08-.27.08-.42s-.03-.29-.08-.42c-.06-.13-.15-.24-.28-.33-.13-.09-.31-.17-.54-.22-.23-.05-.51-.08-.85-.08h-2.44v2.09h2.44ZM543.26,628.99c0-.1-.04-.18-.12-.23-.08-.05-.22-.08-.42-.08h-4.57v1.75h2.77c.19,0,.33-.03.44-.08.1-.05.16-.19.16-.4h.25v2.2h-.25c0-.22-.05-.36-.16-.42-.1-.06-.25-.09-.44-.09h-2.77v1.95h4.71c.14,0,.26-.03.35-.1.09-.07.13-.16.13-.27h.25v1.93h-.25c0-.14-.04-.22-.13-.24-.09-.02-.2-.03-.35-.03h-6.58v-.25c.07,0,.12-.02.18-.06.05-.04.08-.11.08-.19v-6.41c0-.08-.03-.15-.08-.19-.05-.04-.11-.06-.18-.06v-.25h6.44c.2,0,.34-.03.42-.09.08-.06.12-.14.12-.25h.25v1.86h-.25ZM544.78,634.63c.12-.02.22-.08.29-.18.07-.1.14-.22.2-.35l2.61-5.49c.07-.12.12-.23.18-.34.05-.1.08-.19.08-.27,0-.09-.03-.16-.1-.2-.07-.04-.14-.07-.21-.08v-.25h2.39v.25c-.07.02-.13.04-.2.08-.07.03-.1.1-.1.2,0,.08.02.15.05.23.03.08.08.17.15.3l2.94,5.74c.05.1.11.18.19.23.08.05.17.09.28.14v.25h-2.48v-.25s.08-.01.14-.04c.06-.03.08-.07.08-.13,0-.09-.04-.22-.11-.37l-.54-1.04h-3.44l-.51,1c-.09.2-.14.34-.14.42,0,.1.09.16.27.16v.25h-2v-.25ZM550.1,632.01l-1.19-2.62-1.33,2.62h2.51ZM562,635.16c0-.14-.04-.22-.13-.24-.09-.02-.2-.03-.35-.03h-6.72v-.25c.28,0,.42-.08.42-.25v-6.41c0-.17-.14-.25-.42-.25v-.25h2.43v.25c-.26,0-.4.08-.4.25v5.62h4.69c.14,0,.26-.03.35-.1.09-.07.13-.16.13-.27h.25v1.93h-.25ZM575.01,628.99c0-.1-.04-.18-.12-.23-.08-.05-.22-.08-.42-.08h-4.57v1.75h2.77c.19,0,.33-.03.44-.08.1-.05.16-.19.16-.4h.25v2.2h-.25c0-.22-.05-.36-.16-.42-.1-.06-.25-.09-.44-.09h-2.77v1.95h4.71c.14,0,.26-.03.35-.1.09-.07.13-.16.13-.27h.25v1.93h-.25c0-.14-.04-.22-.13-.24-.09-.02-.2-.03-.35-.03h-6.58v-.25c.07,0,.12-.02.18-.06.05-.04.08-.11.08-.19v-6.41c0-.08-.03-.15-.08-.19-.05-.04-.11-.06-.18-.06v-.25h6.44c.2,0,.34-.03.42-.09.08-.06.12-.14.12-.25h.25v1.86h-.25ZM578,632.56l.14.07c0,.08.02.16.06.23.07.11.2.22.39.33.19.11.41.2.66.29.25.08.51.15.78.2.27.05.52.08.73.08.16,0,.37-.01.62-.04.25-.02.5-.07.75-.15.24-.08.46-.18.64-.31.18-.13.27-.31.27-.52s-.08-.38-.25-.48c-.16-.1-.38-.18-.65-.23s-.57-.08-.92-.09c-.34-.01-.69-.04-1.05-.06-.36-.03-.71-.08-1.05-.14-.34-.07-.65-.18-.92-.33s-.48-.37-.65-.64c-.16-.27-.25-.62-.25-1.05,0-.29.07-.58.2-.86.14-.28.35-.53.63-.75.28-.22.64-.39,1.07-.53.43-.14.94-.2,1.52-.2.5,0,.93.04,1.3.11.37.08.68.16.95.24s.49.16.68.24c.18.08.34.11.46.11.13,0,.23-.03.28-.08l.17.11-.97,1.76-.14-.06c-.02-.13-.06-.24-.11-.32-.08-.11-.2-.22-.37-.33-.17-.11-.38-.2-.61-.29-.24-.08-.49-.15-.76-.2-.27-.05-.55-.08-.82-.08-.21,0-.42.02-.64.05-.22.03-.42.08-.6.15-.18.07-.33.15-.44.26-.12.11-.18.24-.18.4,0,.23.08.4.25.51.16.11.38.2.65.25.27.06.57.09.92.11.34.02.69.04,1.05.07.36.03.71.08,1.05.15.34.07.65.18.92.34s.48.36.65.63c.16.26.25.61.25,1.03,0,.49-.13.89-.39,1.2-.26.31-.58.56-.97.73-.39.18-.8.3-1.25.36-.45.06-.86.09-1.25.09-.54,0-.99-.03-1.35-.09-.36-.06-.66-.14-.9-.23-.24-.09-.43-.17-.57-.24-.14-.07-.26-.11-.37-.11-.07,0-.13.04-.18.11l-.2-.11.78-1.71ZM590.76,634.38c0,.17.1.25.31.25v.25h-2.17v-.25c.07,0,.12-.02.18-.06.05-.04.08-.11.08-.19v-5.62h-2.33c-.08,0-.17.02-.25.07-.08.05-.12.14-.12.27h-.25v-1.98h.25c0,.13.04.22.12.27.08.05.16.07.25.07h6.27c.08,0,.17-.02.25-.07.08-.05.12-.14.12-.27h.25v1.98h-.25c0-.13-.04-.22-.12-.27-.08-.05-.16-.07-.25-.07h-2.33v5.62ZM594.57,634.63c.12-.02.22-.08.29-.18.07-.1.14-.22.2-.35l2.61-5.49c.07-.12.12-.23.18-.34.05-.1.08-.19.08-.27,0-.09-.03-.16-.1-.2-.07-.04-.14-.07-.21-.08v-.25h2.39v.25c-.07.02-.13.04-.2.08-.07.03-.1.1-.1.2,0,.08.02.15.05.23.03.08.08.17.15.3l2.94,5.74c.05.1.11.18.19.23.08.05.17.09.28.14v.25h-2.48v-.25s.08-.01.14-.04c.06-.03.08-.07.08-.13,0-.09-.04-.22-.11-.37l-.54-1.04h-3.44l-.51,1c-.09.2-.14.34-.14.42,0,.1.09.16.27.16v.25h-2v-.25ZM599.89,632.01l-1.19-2.62-1.33,2.62h2.51ZM608.79,634.38c0,.17.1.25.31.25v.25h-2.17v-.25c.07,0,.12-.02.18-.06.05-.04.08-.11.08-.19v-5.62h-2.33c-.08,0-.17.02-.25.07-.08.05-.12.14-.12.27h-.25v-1.98h.25c0,.13.04.22.12.27.08.05.16.07.25.07h6.27c.08,0,.17-.02.25-.07.08-.05.12-.14.12-.27h.25v1.98h-.25c0-.13-.04-.22-.12-.27-.08-.05-.16-.07-.25-.07h-2.33v5.62ZM620.49,628.99c0-.1-.04-.18-.12-.23-.08-.05-.22-.08-.42-.08h-4.57v1.75h2.77c.19,0,.33-.03.44-.08.1-.05.16-.19.16-.4h.25v2.2h-.25c0-.22-.05-.36-.16-.42-.1-.06-.25-.09-.44-.09h-2.77v1.95h4.71c.14,0,.26-.03.35-.1.09-.07.13-.16.13-.27h.25v1.93h-.25c0-.14-.04-.22-.13-.24-.09-.02-.2-.03-.35-.03h-6.58v-.25c.07,0,.12-.02.18-.06.05-.04.08-.11.08-.19v-6.41c0-.08-.03-.15-.08-.19-.05-.04-.11-.06-.18-.06v-.25h6.44c.2,0,.34-.03.42-.09.08-.06.12-.14.12-.25h.25v1.86h-.25ZM626.32,634.63c.12-.02.22-.08.29-.18.07-.1.14-.22.2-.35l2.61-5.49c.07-.12.12-.23.18-.34.05-.1.08-.19.08-.27,0-.09-.03-.16-.1-.2-.07-.04-.14-.07-.21-.08v-.25h2.39v.25c-.07.02-.13.04-.2.08-.07.03-.1.1-.1.2,0,.08.02.15.05.23.03.08.08.17.15.3l2.94,5.74c.05.1.11.18.19.23.08.05.17.09.28.14v.25h-2.48v-.25s.08-.01.14-.04c.06-.03.08-.07.08-.13,0-.09-.04-.22-.11-.37l-.54-1.04h-3.44l-.51,1c-.09.2-.14.34-.14.42,0,.1.09.16.27.16v.25h-2v-.25ZM631.64,632.01l-1.19-2.62-1.33,2.62h2.51ZM643.41,629.75l-.28-.08c.02-.06.03-.11.03-.17,0-.14-.09-.27-.26-.38-.17-.11-.4-.21-.66-.29-.27-.08-.56-.14-.88-.18-.32-.04-.61-.06-.9-.06-.35,0-.69.05-1.04.15-.34.1-.65.25-.92.46-.27.21-.48.48-.65.8-.16.33-.25.73-.25,1.2s.08.86.25,1.19c.16.33.38.6.65.81.27.21.57.36.92.46.34.1.69.15,1.04.15.54,0,1.02-.04,1.45-.13.43-.09.79-.19,1.09-.29v-1.21h-1.81c-.13,0-.23.03-.3.08-.07.06-.11.18-.13.37h-.25v-1.81h.25c.02.16.06.26.13.3.07.04.16.06.3.06h3.53v.25c-.19.03-.31.06-.35.1-.05.04-.07.12-.07.24v1.59c0,.09.03.16.08.18.06.03.12.06.2.1v.23c-.31.22-.64.4-.98.54-.34.14-.69.25-1.04.33-.35.08-.71.13-1.06.15s-.7.03-1.04.03c-.66,0-1.26-.08-1.8-.25-.54-.16-1-.41-1.39-.73-.39-.32-.68-.72-.9-1.19-.21-.47-.32-.99-.32-1.59s.11-1.12.32-1.59.51-.86.9-1.19c.39-.33.85-.58,1.39-.76.54-.17,1.14-.26,1.8-.26.41,0,.81.03,1.19.08.38.06.71.12,1,.19s.53.14.73.2c.19.06.31.09.36.09.08,0,.15-.02.2-.06.05-.04.09-.07.14-.1l.17.1-.83,1.86ZM653.81,628.99c0-.1-.04-.18-.12-.23-.08-.05-.22-.08-.42-.08h-4.57v1.75h2.77c.19,0,.33-.03.44-.08.1-.05.16-.19.16-.4h.25v2.2h-.25c0-.22-.05-.36-.16-.42-.1-.06-.25-.09-.44-.09h-2.77v1.95h4.71c.14,0,.26-.03.35-.1.09-.07.13-.16.13-.27h.25v1.93h-.25c0-.14-.04-.22-.13-.24-.09-.02-.2-.03-.35-.03h-6.58v-.25c.07,0,.12-.02.18-.06.05-.04.08-.11.08-.19v-6.41c0-.08-.03-.15-.08-.19-.05-.04-.11-.06-.18-.06v-.25h6.44c.2,0,.34-.03.42-.09.08-.06.12-.14.12-.25h.25v1.86h-.25ZM656.32,634.63c.18,0,.27-.08.27-.25v-6.41c0-.17-.09-.25-.27-.25v-.25h2.41v.25c-.08,0-.11.05-.11.14,0,.08.09.21.28.4l4.05,4.21v-4.49c0-.17-.12-.25-.37-.25v-.25h2.13v.25c-.18,0-.27.08-.27.25v6.41c0,.17.09.25.27.25v.25h-2.29v-.25c.12,0,.18-.04.18-.13,0-.07-.08-.17-.23-.32l-4.3-4.49v4.69c0,.17.11.25.32.25v.25h-2.09v-.25ZM675.07,633.87s-.05,0-.08,0c-.02,0-.05,0-.08,0-.06,0-.19.06-.4.17-.21.11-.48.24-.8.38-.32.14-.69.26-1.11.37-.41.1-.85.16-1.3.16-.59,0-1.16-.08-1.71-.23-.55-.15-1.03-.38-1.45-.7-.42-.32-.75-.71-.99-1.18-.24-.47-.37-1.02-.37-1.65s.12-1.17.37-1.64c.24-.47.58-.87.99-1.19.42-.32.9-.56,1.45-.72.55-.16,1.11-.24,1.71-.24.48,0,.91.04,1.31.11.39.08.73.16,1.02.24.29.08.52.16.69.24.17.08.27.11.31.11.05,0,.09-.02.12-.07.03-.05.06-.08.08-.11l.21.17-1.1,1.71-.14-.1s0-.06,0-.08c0-.03-.01-.06-.02-.1-.02-.1-.11-.21-.28-.32-.17-.11-.38-.2-.63-.29-.25-.08-.51-.16-.79-.21-.28-.06-.53-.08-.77-.08-.4,0-.77.06-1.14.17-.36.11-.68.28-.95.49-.27.22-.48.48-.64.8-.16.32-.24.68-.24,1.08s.08.76.24,1.08c.16.32.37.58.64.8.27.22.58.38.95.49.36.11.74.17,1.14.17.3,0,.62-.04.95-.11.33-.07.63-.16.9-.27.27-.11.5-.23.68-.37.18-.14.28-.27.28-.39,0-.07-.02-.12-.06-.17l.2-.11.93,1.5-.11.11ZM679.3,627.46v.25c-.08,0-.16.01-.24.04-.08.02-.11.08-.11.18,0,.06.07.19.2.4.14.21.3.45.48.72s.37.54.57.83c.2.28.36.52.48.72l1.65-2.27c.08-.11.14-.2.18-.27.05-.07.07-.13.07-.18,0-.07-.04-.11-.13-.13-.09-.02-.17-.03-.25-.03v-.25h2.47v.25c-.08,0-.15,0-.21.02-.07.01-.13.05-.2.1-.07.05-.15.13-.23.23-.08.1-.18.23-.29.4l-2.4,3.4v2.51c0,.17.11.25.32.25v.25h-2.23v-.25c.08,0,.16-.02.21-.06.06-.04.08-.11.08-.19v-2.51l-2.72-3.81c-.07-.09-.17-.17-.3-.24-.14-.07-.25-.1-.35-.1v-.25h2.94ZM511.22,559.05h-4.68v-61.99h4.68v61.99ZM589.87,474.44l-78.64,78.27c0,6.1,0,0,0,6.34l81.95-81.3c.91-.91.91-2.4,0-3.31h0c-.91-.91-2.4-.91-3.31,0ZM614.18,469.32h-29.06v89.73h29.06v-89.73ZM699.45,445.2h-114.34v24.12h114.34v-24.12ZM658.6,492.29h-73.49v24.12h73.49v-24.12ZM699.45,534.93h-114.34v24.12h114.34v-24.12ZM585.13,444.84l-29.01,29.01,13.99,13.99,29.01-29.01-13.99-13.99ZM556.13,473.86l-14.22,42.4,28.31-28.31-14.09-14.09ZM489.69,591.13c-.37-3.02-.56-4.87-.74-6.55-.97-.19-3.53-.88-6.13-.88-6.13,0-9.56,3.9-9.56,8.03s2.74,6.55,7.61,9.19c4.09,2.23,5.99,3.67,5.99,7.24,0,3.02-2.04,5.34-5.38,5.34-4.83,0-6.87-4.04-7.8-7.15l-1.44.37c.32,2.51.88,5.66,1.25,6.96,1.9.74,4.32,1.53,7.1,1.53,5.99,0,10.21-3.71,10.21-8.59,0-4.41-2.41-6.55-7.98-9.42-3.85-2-5.9-3.62-5.9-6.82,0-2.41,1.25-5.06,4.87-5.06,4.36,0,5.66,3.02,6.45,6.08l1.44-.28ZM520.56,591.5c-.23-2.69-.42-6.03-.42-8.22h-1.11c-.7.88-1.07,1.07-2.37,1.07h-18.38c-1.3,0-1.81.05-2.51-1.07h-1.07c-.14,2.6-.42,5.52-.7,8.36h1.39c.6-1.72.97-2.83,1.53-3.76.79-1.39,1.53-1.67,4.08-1.67h4.22v22.61c0,3.67-.37,4.13-4.69,4.41v1.3h13.51v-1.3c-4.41-.28-4.78-.79-4.78-4.41v-22.61h4.64c2.55,0,3.02.32,3.76,1.58.51.84,1.07,2.37,1.49,3.85l1.39-.14ZM552.08,613.6c-1.07-.28-2.14-.79-3.39-2.14-1.07-1.16-1.95-2.32-3.67-4.78-1.39-2.09-3.39-5.2-4.22-6.64,3.44-1.49,5.99-3.99,5.99-7.98,0-2.83-1.25-4.92-3.16-6.13-1.76-1.16-4.04-1.58-7.43-1.58h-11.84v1.3c3.67.42,4.18.56,4.18,4.5v18.52c0,3.95-.32,4.13-4.18,4.55v1.3h12.39v-1.3c-3.71-.37-4.22-.6-4.22-4.55v-7.29h1.62c2.37,0,2.97.28,3.9,1.76,1.49,2.37,3.16,5.29,4.87,7.66,2.04,2.88,3.85,3.76,7.24,3.99.6.05,1.11.09,1.72.09l.19-1.3ZM532.53,599.81v-11.37c0-1.21.14-1.67.56-2,.33-.28,1.11-.46,2.46-.46,3.57,0,6.87,1.81,6.87,6.78,0,2.51-.74,4.36-2.55,5.71-1.16.97-2.69,1.35-5.11,1.35h-2.23ZM576.4,606.77c-.65,1.39-1.62,3.3-2.51,4.27-1.02,1.21-1.49,1.62-4.32,1.62h-4.32c-2.32-.05-3.34-.32-3.34-3.57v-9.24h5.11c3.34,0,3.71.46,4.32,3.81h1.44v-9.56h-1.44c-.56,3.16-.79,3.85-4.27,3.85h-5.15v-10.26c0-1.35.09-1.49,1.53-1.49h4.41c2.79,0,3.85.32,4.6,1.86.51.97.97,1.95,1.39,3.53l1.39-.23c-.19-2.46-.37-5.94-.42-7.1-.56.05-2.37.09-6.73.09h-14.2v1.3c3.48.33,3.99.56,3.99,4.69v18.34c0,3.81-.32,4.22-4.64,4.55v1.3h22.56c.46-1.39,1.72-6.17,2-7.38l-1.39-.37ZM603.74,606.77c-.65,1.39-1.62,3.3-2.51,4.27-1.02,1.21-1.49,1.62-4.32,1.62h-4.32c-2.32-.05-3.34-.32-3.34-3.57v-9.24h5.11c3.34,0,3.71.46,4.32,3.81h1.44v-9.56h-1.44c-.56,3.16-.79,3.85-4.27,3.85h-5.15v-10.26c0-1.35.09-1.49,1.53-1.49h4.41c2.79,0,3.85.32,4.6,1.86.51.97.97,1.95,1.39,3.53l1.39-.23c-.19-2.46-.37-5.94-.42-7.1-.56.05-2.37.09-6.73.09h-14.2v1.3c3.48.33,3.99.56,3.99,4.69v18.34c0,3.81-.32,4.22-4.64,4.55v1.3h22.56c.46-1.39,1.72-6.17,2-7.38l-1.39-.37ZM634.24,591.5c-.23-2.69-.42-6.03-.42-8.22h-1.11c-.7.88-1.07,1.07-2.37,1.07h-18.38c-1.3,0-1.81.05-2.51-1.07h-1.07c-.14,2.6-.42,5.52-.7,8.36h1.39c.6-1.72.97-2.83,1.53-3.76.79-1.39,1.53-1.67,4.08-1.67h4.22v22.61c0,3.67-.37,4.13-4.69,4.41v1.3h13.51v-1.3c-4.41-.28-4.78-.79-4.78-4.41v-22.61h4.64c2.55,0,3.02.32,3.76,1.58.51.84,1.07,2.37,1.49,3.85l1.39-.14ZM692.26,570.13h-284.95v2.08h284.95v-2.08ZM437.25,559.64c33.49,0,58.53-24.08,58.53-56.78s-25.04-56.78-58.53-56.78-58.69,24.24-58.69,56.78,24.88,56.78,58.69,56.78ZM437.25,549.11c-26.95,0-47.05-19.62-47.05-46.25s20.1-46.25,47.05-46.25,46.73,19.62,46.73,46.25-19.94,46.25-46.73,46.25Z"/>
</svg>